<!DOCTYPE svg PUBLIC "-//W3C//DTD SVG 1.1//EN" "http://www.w3.org/Graphics/SVG/1.1/DTD/svg11.dtd">
<!-- Uploaded to: SVG Repo, www.svgrepo.com, Transformed by: SVG Repo Mixer Tools -->
<svg fill="#CFE6E2" version="1.1" id="Layer_1" xmlns="http://www.w3.org/2000/svg" xmlns:xlink="http://www.w3.org/1999/xlink" viewBox="0 0 24 24" xml:space="preserve" width="800px" height="800px">
<g id="SVGRepo_bgCarrier" stroke-width="0"/>
<g id="SVGRepo_tracerCarrier" stroke-linecap="round" stroke-linejoin="round"/>
<g id="SVGRepo_iconCarrier"> <style type="text/css"> .st0{fill:none;} </style> <path d="M7.5,5C5.6,5,4,6.6,4,8.5S5.6,12,7.5,12S11,10.4,11,8.5S9.4,5,7.5,5z M16.5,5C14.6,5,13,6.6,13,8.5s1.6,3.5,3.5,3.5 S20,10.4,20,8.5S18.4,5,16.5,5z M7.5,14C2.6,14,1,18,1,18v2h13v-2C14,18,12.4,14,7.5,14z M16.5,14c-1.5,0-2.7,0.4-3.6,0.9 c1.4,1.2,2,2.6,2.1,2.7l0.1,0.2V20h8v-2C23,18,21.4,14,16.5,14z"/> <rect class="st0" width="24" height="24"/> </g>
</svg>